<mxfile host="Electron" agent="Mozilla/5.0 (Windows NT 10.0; Win64; x64) AppleWebKit/537.36 (KHTML, like Gecko) draw.io/27.0.9 Chrome/134.0.6998.205 Electron/35.4.0 Safari/537.36" version="27.0.9">
  <diagram name="Página-1" id="QCtSQ3Uzb1Jj7chQJ9qx">
    <mxGraphModel dx="1951" dy="940" grid="1" gridSize="10" guides="1" tooltips="1" connect="1" arrows="1" fold="1" page="1" pageScale="1" pageWidth="827" pageHeight="1169" math="0" shadow="0">
      <root>
        <mxCell id="0" />
        <mxCell id="1" parent="0" />
        <mxCell id="vW0XQEw-QO7GtGbMRlmA-1" value="" style="group" parent="1" vertex="1" connectable="0">
          <mxGeometry x="371" y="312" width="190.5" height="110" as="geometry" />
        </mxCell>
        <mxCell id="vW0XQEw-QO7GtGbMRlmA-2" value="Classificação" style="rounded=1;arcSize=10;whiteSpace=wrap;html=1;align=center;" parent="vW0XQEw-QO7GtGbMRlmA-1" vertex="1">
          <mxGeometry x="70" y="70" width="100" height="40" as="geometry" />
        </mxCell>
        <mxCell id="vW0XQEw-QO7GtGbMRlmA-3" style="edgeStyle=none;shape=connector;rounded=1;orthogonalLoop=1;jettySize=auto;html=1;shadow=0;strokeColor=default;strokeWidth=0.3937;align=center;verticalAlign=middle;fontFamily=Helvetica;fontSize=11;fontColor=default;labelBackgroundColor=default;startFill=0;endArrow=none;flowAnimation=0;" parent="vW0XQEw-QO7GtGbMRlmA-1" source="vW0XQEw-QO7GtGbMRlmA-4" edge="1">
          <mxGeometry relative="1" as="geometry">
            <mxPoint x="120" y="70" as="targetPoint" />
          </mxGeometry>
        </mxCell>
        <mxCell id="vW0XQEw-QO7GtGbMRlmA-4" value="&lt;u&gt;id_classificação&lt;/u&gt;" style="ellipse;whiteSpace=wrap;html=1;align=center;" parent="vW0XQEw-QO7GtGbMRlmA-1" vertex="1">
          <mxGeometry x="46" y="1" width="101" height="24" as="geometry" />
        </mxCell>
        <mxCell id="vW0XQEw-QO7GtGbMRlmA-5" style="shape=connector;rounded=1;orthogonalLoop=1;jettySize=auto;html=1;entryX=0.5;entryY=0;entryDx=0;entryDy=0;shadow=0;strokeColor=default;strokeWidth=0.3937;align=center;verticalAlign=middle;fontFamily=Helvetica;fontSize=11;fontColor=default;labelBackgroundColor=default;startFill=0;endArrow=none;flowAnimation=0;" parent="vW0XQEw-QO7GtGbMRlmA-1" source="vW0XQEw-QO7GtGbMRlmA-6" target="vW0XQEw-QO7GtGbMRlmA-2" edge="1">
          <mxGeometry relative="1" as="geometry" />
        </mxCell>
        <mxCell id="vW0XQEw-QO7GtGbMRlmA-6" value="nome" style="ellipse;whiteSpace=wrap;html=1;align=center;" parent="vW0XQEw-QO7GtGbMRlmA-1" vertex="1">
          <mxGeometry x="129.5" y="18" width="42" height="21" as="geometry" />
        </mxCell>
        <mxCell id="vW0XQEw-QO7GtGbMRlmA-227" style="rounded=1;orthogonalLoop=1;jettySize=auto;html=1;exitX=1;exitY=0.5;exitDx=0;exitDy=0;entryX=0.5;entryY=0;entryDx=0;entryDy=0;shadow=0;strokeColor=default;strokeWidth=0.3937;align=center;verticalAlign=middle;fontFamily=Helvetica;fontSize=11;fontColor=default;labelBackgroundColor=default;startFill=0;endArrow=none;flowAnimation=0;" parent="vW0XQEw-QO7GtGbMRlmA-1" source="vW0XQEw-QO7GtGbMRlmA-219" target="vW0XQEw-QO7GtGbMRlmA-2" edge="1">
          <mxGeometry relative="1" as="geometry" />
        </mxCell>
        <mxCell id="vW0XQEw-QO7GtGbMRlmA-219" value="is_&lt;span style=&quot;background-color: transparent; color: light-dark(rgb(0, 0, 0), rgb(255, 255, 255));&quot;&gt;active&lt;/span&gt;" style="ellipse;whiteSpace=wrap;html=1;align=center;" parent="vW0XQEw-QO7GtGbMRlmA-1" vertex="1">
          <mxGeometry x="36" y="26.5" width="58" height="19" as="geometry" />
        </mxCell>
        <mxCell id="vW0XQEw-QO7GtGbMRlmA-9" style="edgeStyle=orthogonalEdgeStyle;rounded=1;orthogonalLoop=1;jettySize=auto;html=1;entryX=0;entryY=0.5;entryDx=0;entryDy=0;endArrow=none;startFill=0;strokeWidth=0.3937;curved=0;flowAnimation=0;shadow=0;" parent="1" source="vW0XQEw-QO7GtGbMRlmA-47" target="vW0XQEw-QO7GtGbMRlmA-18" edge="1">
          <mxGeometry relative="1" as="geometry" />
        </mxCell>
        <mxCell id="vW0XQEw-QO7GtGbMRlmA-10" value="N" style="edgeLabel;html=1;align=center;verticalAlign=middle;resizable=0;points=[];" parent="vW0XQEw-QO7GtGbMRlmA-9" vertex="1" connectable="0">
          <mxGeometry x="-0.2368" y="2" relative="1" as="geometry">
            <mxPoint as="offset" />
          </mxGeometry>
        </mxCell>
        <mxCell id="vW0XQEw-QO7GtGbMRlmA-11" style="edgeStyle=orthogonalEdgeStyle;rounded=1;orthogonalLoop=1;jettySize=auto;html=1;endArrow=none;startFill=0;strokeWidth=0.3937;curved=0;flowAnimation=0;shadow=0;" parent="1" source="vW0XQEw-QO7GtGbMRlmA-15" target="vW0XQEw-QO7GtGbMRlmA-20" edge="1">
          <mxGeometry relative="1" as="geometry" />
        </mxCell>
        <mxCell id="vW0XQEw-QO7GtGbMRlmA-12" value="1" style="edgeLabel;html=1;align=center;verticalAlign=middle;resizable=0;points=[];" parent="vW0XQEw-QO7GtGbMRlmA-11" vertex="1" connectable="0">
          <mxGeometry x="-0.0262" y="1" relative="1" as="geometry">
            <mxPoint as="offset" />
          </mxGeometry>
        </mxCell>
        <mxCell id="vW0XQEw-QO7GtGbMRlmA-13" style="edgeStyle=orthogonalEdgeStyle;rounded=1;orthogonalLoop=1;jettySize=auto;html=1;exitX=1;exitY=0.5;exitDx=0;exitDy=0;entryX=0;entryY=0.5;entryDx=0;entryDy=0;endArrow=none;startFill=0;strokeWidth=0.3937;curved=0;flowAnimation=0;shadow=0;" parent="1" source="vW0XQEw-QO7GtGbMRlmA-15" target="vW0XQEw-QO7GtGbMRlmA-47" edge="1">
          <mxGeometry relative="1" as="geometry" />
        </mxCell>
        <mxCell id="vW0XQEw-QO7GtGbMRlmA-14" value="N" style="edgeLabel;html=1;align=center;verticalAlign=middle;resizable=0;points=[];" parent="vW0XQEw-QO7GtGbMRlmA-13" vertex="1" connectable="0">
          <mxGeometry x="-0.0593" relative="1" as="geometry">
            <mxPoint as="offset" />
          </mxGeometry>
        </mxCell>
        <mxCell id="vW0XQEw-QO7GtGbMRlmA-15" value="" style="shape=rhombus;perimeter=rhombusPerimeter;whiteSpace=wrap;html=1;align=center;strokeWidth=0.3937;fontFamily=Helvetica;fontColor=#464646;spacing=0.3937;" parent="1" vertex="1">
          <mxGeometry x="213" y="548" width="60" height="30" as="geometry" />
        </mxCell>
        <mxCell id="vW0XQEw-QO7GtGbMRlmA-16" style="edgeStyle=orthogonalEdgeStyle;rounded=1;orthogonalLoop=1;jettySize=auto;html=1;endArrow=none;startFill=0;strokeWidth=0.3937;curved=0;flowAnimation=0;shadow=0;entryX=0;entryY=0.5;entryDx=0;entryDy=0;" parent="1" source="vW0XQEw-QO7GtGbMRlmA-18" target="vW0XQEw-QO7GtGbMRlmA-32" edge="1">
          <mxGeometry relative="1" as="geometry" />
        </mxCell>
        <mxCell id="vW0XQEw-QO7GtGbMRlmA-17" value="1" style="edgeLabel;html=1;align=center;verticalAlign=middle;resizable=0;points=[];" parent="vW0XQEw-QO7GtGbMRlmA-16" vertex="1" connectable="0">
          <mxGeometry x="-0.2711" y="3" relative="1" as="geometry">
            <mxPoint as="offset" />
          </mxGeometry>
        </mxCell>
        <mxCell id="vW0XQEw-QO7GtGbMRlmA-18" value="" style="shape=rhombus;perimeter=rhombusPerimeter;whiteSpace=wrap;html=1;align=center;strokeWidth=0.3937;fontFamily=Helvetica;fontColor=#464646;spacing=0.3937;" parent="1" vertex="1">
          <mxGeometry x="481" y="555" width="60" height="30" as="geometry" />
        </mxCell>
        <mxCell id="vW0XQEw-QO7GtGbMRlmA-19" value="" style="group" parent="1" vertex="1" connectable="0">
          <mxGeometry x="60" y="350" width="215" height="120" as="geometry" />
        </mxCell>
        <mxCell id="vW0XQEw-QO7GtGbMRlmA-20" value="Alimento" style="rounded=1;arcSize=10;whiteSpace=wrap;html=1;align=center;" parent="vW0XQEw-QO7GtGbMRlmA-19" vertex="1">
          <mxGeometry x="90" y="80" width="100" height="40" as="geometry" />
        </mxCell>
        <mxCell id="vW0XQEw-QO7GtGbMRlmA-21" style="edgeStyle=none;shape=connector;rounded=1;orthogonalLoop=1;jettySize=auto;html=1;exitX=0;exitY=1;exitDx=0;exitDy=0;entryX=0.5;entryY=0;entryDx=0;entryDy=0;shadow=0;strokeColor=default;strokeWidth=0.3937;align=center;verticalAlign=middle;fontFamily=Helvetica;fontSize=11;fontColor=default;labelBackgroundColor=default;startFill=0;endArrow=none;flowAnimation=0;" parent="vW0XQEw-QO7GtGbMRlmA-19" source="vW0XQEw-QO7GtGbMRlmA-22" target="vW0XQEw-QO7GtGbMRlmA-20" edge="1">
          <mxGeometry relative="1" as="geometry" />
        </mxCell>
        <mxCell id="vW0XQEw-QO7GtGbMRlmA-22" value="nome" style="ellipse;whiteSpace=wrap;html=1;align=center;" parent="vW0XQEw-QO7GtGbMRlmA-19" vertex="1">
          <mxGeometry x="139" y="9.5" width="47" height="19" as="geometry" />
        </mxCell>
        <mxCell id="vW0XQEw-QO7GtGbMRlmA-23" style="edgeStyle=none;shape=connector;rounded=1;orthogonalLoop=1;jettySize=auto;html=1;exitX=0.5;exitY=1;exitDx=0;exitDy=0;entryX=0.5;entryY=0;entryDx=0;entryDy=0;shadow=0;strokeColor=default;strokeWidth=0.3937;align=center;verticalAlign=middle;fontFamily=Helvetica;fontSize=11;fontColor=default;labelBackgroundColor=default;startFill=0;endArrow=none;flowAnimation=0;" parent="vW0XQEw-QO7GtGbMRlmA-19" source="vW0XQEw-QO7GtGbMRlmA-24" target="vW0XQEw-QO7GtGbMRlmA-20" edge="1">
          <mxGeometry relative="1" as="geometry" />
        </mxCell>
        <mxCell id="vW0XQEw-QO7GtGbMRlmA-24" value="&lt;u&gt;id_classificação&lt;/u&gt;" style="ellipse;whiteSpace=wrap;html=1;align=center;" parent="vW0XQEw-QO7GtGbMRlmA-19" vertex="1">
          <mxGeometry x="48.5" y="-4.5" width="101" height="24" as="geometry" />
        </mxCell>
        <mxCell id="vW0XQEw-QO7GtGbMRlmA-25" style="edgeStyle=none;shape=connector;rounded=1;orthogonalLoop=1;jettySize=auto;html=1;exitX=1;exitY=0.5;exitDx=0;exitDy=0;entryX=0.5;entryY=0;entryDx=0;entryDy=0;shadow=0;strokeColor=default;strokeWidth=0.3937;align=center;verticalAlign=middle;fontFamily=Helvetica;fontSize=11;fontColor=default;labelBackgroundColor=default;startFill=0;endArrow=none;flowAnimation=0;" parent="vW0XQEw-QO7GtGbMRlmA-19" source="vW0XQEw-QO7GtGbMRlmA-26" target="vW0XQEw-QO7GtGbMRlmA-20" edge="1">
          <mxGeometry relative="1" as="geometry" />
        </mxCell>
        <mxCell id="vW0XQEw-QO7GtGbMRlmA-26" value="&lt;u&gt;id_alimento&lt;/u&gt;" style="ellipse;whiteSpace=wrap;html=1;align=center;" parent="vW0XQEw-QO7GtGbMRlmA-19" vertex="1">
          <mxGeometry x="12" y="15" width="72" height="22" as="geometry" />
        </mxCell>
        <mxCell id="vW0XQEw-QO7GtGbMRlmA-27" style="rounded=0;orthogonalLoop=1;jettySize=auto;html=1;exitX=1;exitY=0.5;exitDx=0;exitDy=0;entryX=0.5;entryY=0;entryDx=0;entryDy=0;endArrow=none;startFill=0;strokeWidth=0.3937;" parent="vW0XQEw-QO7GtGbMRlmA-19" source="vW0XQEw-QO7GtGbMRlmA-28" target="vW0XQEw-QO7GtGbMRlmA-20" edge="1">
          <mxGeometry relative="1" as="geometry" />
        </mxCell>
        <mxCell id="vW0XQEw-QO7GtGbMRlmA-28" value="MS" style="ellipse;whiteSpace=wrap;html=1;align=center;" parent="vW0XQEw-QO7GtGbMRlmA-19" vertex="1">
          <mxGeometry x="30.5" y="38" width="47" height="19" as="geometry" />
        </mxCell>
        <mxCell id="vW0XQEw-QO7GtGbMRlmA-29" value="PB" style="ellipse;whiteSpace=wrap;html=1;align=center;" parent="vW0XQEw-QO7GtGbMRlmA-19" vertex="1">
          <mxGeometry x="50.5" y="56.5" width="47" height="19" as="geometry" />
        </mxCell>
        <mxCell id="vW0XQEw-QO7GtGbMRlmA-30" style="rounded=0;orthogonalLoop=1;jettySize=auto;html=1;exitX=1;exitY=0.5;exitDx=0;exitDy=0;entryX=0.5;entryY=0;entryDx=0;entryDy=0;endArrow=none;startFill=0;strokeWidth=0.3937;" parent="vW0XQEw-QO7GtGbMRlmA-19" source="vW0XQEw-QO7GtGbMRlmA-29" target="vW0XQEw-QO7GtGbMRlmA-20" edge="1">
          <mxGeometry relative="1" as="geometry">
            <mxPoint x="150" y="90" as="targetPoint" />
          </mxGeometry>
        </mxCell>
        <mxCell id="vW0XQEw-QO7GtGbMRlmA-201" value="ED" style="ellipse;whiteSpace=wrap;html=1;align=center;" parent="vW0XQEw-QO7GtGbMRlmA-19" vertex="1">
          <mxGeometry x="166" y="25" width="47" height="19" as="geometry" />
        </mxCell>
        <mxCell id="vW0XQEw-QO7GtGbMRlmA-202" style="rounded=0;orthogonalLoop=1;jettySize=auto;html=1;exitX=0;exitY=0.5;exitDx=0;exitDy=0;entryX=0.5;entryY=0;entryDx=0;entryDy=0;endArrow=none;startFill=0;strokeWidth=0.3937;" parent="vW0XQEw-QO7GtGbMRlmA-19" source="vW0XQEw-QO7GtGbMRlmA-201" target="vW0XQEw-QO7GtGbMRlmA-20" edge="1">
          <mxGeometry relative="1" as="geometry">
            <mxPoint x="281.5" y="69.5" as="targetPoint" />
          </mxGeometry>
        </mxCell>
        <mxCell id="vW0XQEw-QO7GtGbMRlmA-218" style="rounded=0;orthogonalLoop=1;jettySize=auto;html=1;exitX=0;exitY=0.5;exitDx=0;exitDy=0;endArrow=none;startFill=0;strokeWidth=0.3937;entryX=0.5;entryY=0;entryDx=0;entryDy=0;" parent="vW0XQEw-QO7GtGbMRlmA-19" source="vW0XQEw-QO7GtGbMRlmA-217" target="vW0XQEw-QO7GtGbMRlmA-20" edge="1">
          <mxGeometry relative="1" as="geometry">
            <mxPoint x="141" y="82" as="targetPoint" />
          </mxGeometry>
        </mxCell>
        <mxCell id="vW0XQEw-QO7GtGbMRlmA-217" value="is_&lt;span style=&quot;background-color: transparent; color: light-dark(rgb(0, 0, 0), rgb(255, 255, 255));&quot;&gt;active&lt;/span&gt;" style="ellipse;whiteSpace=wrap;html=1;align=center;" parent="vW0XQEw-QO7GtGbMRlmA-19" vertex="1">
          <mxGeometry x="161" y="45.5" width="58" height="19" as="geometry" />
        </mxCell>
        <mxCell id="vW0XQEw-QO7GtGbMRlmA-31" value="" style="group" parent="1" vertex="1" connectable="0">
          <mxGeometry x="541" y="438" width="182" height="110" as="geometry" />
        </mxCell>
        <mxCell id="vW0XQEw-QO7GtGbMRlmA-32" value="Nutriente" style="rounded=1;arcSize=10;whiteSpace=wrap;html=1;align=center;" parent="vW0XQEw-QO7GtGbMRlmA-31" vertex="1">
          <mxGeometry x="52" y="70" width="100" height="40" as="geometry" />
        </mxCell>
        <mxCell id="vW0XQEw-QO7GtGbMRlmA-33" style="edgeStyle=none;shape=connector;rounded=1;orthogonalLoop=1;jettySize=auto;html=1;exitX=1;exitY=1;exitDx=0;exitDy=0;entryX=0.5;entryY=0;entryDx=0;entryDy=0;shadow=0;strokeColor=default;strokeWidth=0.3937;align=center;verticalAlign=middle;fontFamily=Helvetica;fontSize=11;fontColor=default;labelBackgroundColor=default;startFill=0;endArrow=none;flowAnimation=0;" parent="vW0XQEw-QO7GtGbMRlmA-31" source="vW0XQEw-QO7GtGbMRlmA-34" target="vW0XQEw-QO7GtGbMRlmA-32" edge="1">
          <mxGeometry relative="1" as="geometry" />
        </mxCell>
        <mxCell id="vW0XQEw-QO7GtGbMRlmA-34" value="nome" style="ellipse;whiteSpace=wrap;html=1;align=center;" parent="vW0XQEw-QO7GtGbMRlmA-31" vertex="1">
          <mxGeometry x="42" y="7" width="44" height="18" as="geometry" />
        </mxCell>
        <mxCell id="vW0XQEw-QO7GtGbMRlmA-35" style="edgeStyle=none;shape=connector;rounded=1;orthogonalLoop=1;jettySize=auto;html=1;shadow=0;strokeColor=default;strokeWidth=0.3937;align=center;verticalAlign=middle;fontFamily=Helvetica;fontSize=11;fontColor=default;labelBackgroundColor=default;startFill=0;endArrow=none;flowAnimation=0;" parent="vW0XQEw-QO7GtGbMRlmA-31" source="vW0XQEw-QO7GtGbMRlmA-36" edge="1">
          <mxGeometry relative="1" as="geometry">
            <mxPoint x="102" y="70" as="targetPoint" />
          </mxGeometry>
        </mxCell>
        <mxCell id="vW0XQEw-QO7GtGbMRlmA-36" value="categoria" style="ellipse;whiteSpace=wrap;html=1;align=center;" parent="vW0XQEw-QO7GtGbMRlmA-31" vertex="1">
          <mxGeometry x="84" width="57" height="21" as="geometry" />
        </mxCell>
        <mxCell id="vW0XQEw-QO7GtGbMRlmA-37" style="edgeStyle=none;shape=connector;rounded=1;orthogonalLoop=1;jettySize=auto;html=1;exitX=1;exitY=1;exitDx=0;exitDy=0;entryX=0.5;entryY=0;entryDx=0;entryDy=0;shadow=0;strokeColor=default;strokeWidth=0.3937;align=center;verticalAlign=middle;fontFamily=Helvetica;fontSize=11;fontColor=default;labelBackgroundColor=default;startFill=0;endArrow=none;flowAnimation=0;" parent="vW0XQEw-QO7GtGbMRlmA-31" source="vW0XQEw-QO7GtGbMRlmA-38" target="vW0XQEw-QO7GtGbMRlmA-32" edge="1">
          <mxGeometry relative="1" as="geometry" />
        </mxCell>
        <mxCell id="vW0XQEw-QO7GtGbMRlmA-38" value="&lt;u&gt;id_nutriente&lt;/u&gt;" style="ellipse;whiteSpace=wrap;html=1;align=center;" parent="vW0XQEw-QO7GtGbMRlmA-31" vertex="1">
          <mxGeometry x="6" y="22" width="78" height="23" as="geometry" />
        </mxCell>
        <mxCell id="vW0XQEw-QO7GtGbMRlmA-39" style="edgeStyle=none;shape=connector;rounded=1;orthogonalLoop=1;jettySize=auto;html=1;exitX=0;exitY=1;exitDx=0;exitDy=0;entryX=0.5;entryY=0;entryDx=0;entryDy=0;shadow=0;strokeColor=default;strokeWidth=0.3937;align=center;verticalAlign=middle;fontFamily=Helvetica;fontSize=11;fontColor=default;labelBackgroundColor=default;startFill=0;endArrow=none;flowAnimation=0;" parent="vW0XQEw-QO7GtGbMRlmA-31" source="vW0XQEw-QO7GtGbMRlmA-40" target="vW0XQEw-QO7GtGbMRlmA-32" edge="1">
          <mxGeometry relative="1" as="geometry" />
        </mxCell>
        <mxCell id="vW0XQEw-QO7GtGbMRlmA-40" value="unidade" style="ellipse;whiteSpace=wrap;html=1;align=center;" parent="vW0XQEw-QO7GtGbMRlmA-31" vertex="1">
          <mxGeometry x="122" y="24" width="60" height="24" as="geometry" />
        </mxCell>
        <mxCell id="vW0XQEw-QO7GtGbMRlmA-223" style="rounded=0;orthogonalLoop=1;jettySize=auto;html=1;exitX=1;exitY=0.5;exitDx=0;exitDy=0;entryX=0.5;entryY=0;entryDx=0;entryDy=0;endArrow=none;startFill=0;strokeWidth=0.3937;" parent="vW0XQEw-QO7GtGbMRlmA-31" source="vW0XQEw-QO7GtGbMRlmA-220" target="vW0XQEw-QO7GtGbMRlmA-32" edge="1">
          <mxGeometry relative="1" as="geometry" />
        </mxCell>
        <mxCell id="vW0XQEw-QO7GtGbMRlmA-220" value="is_&lt;span style=&quot;background-color: transparent; color: light-dark(rgb(0, 0, 0), rgb(255, 255, 255));&quot;&gt;active&lt;/span&gt;" style="ellipse;whiteSpace=wrap;html=1;align=center;" parent="vW0XQEw-QO7GtGbMRlmA-31" vertex="1">
          <mxGeometry x="10" y="44" width="58" height="19" as="geometry" />
        </mxCell>
        <mxCell id="vW0XQEw-QO7GtGbMRlmA-41" style="edgeStyle=orthogonalEdgeStyle;shape=connector;curved=0;rounded=1;orthogonalLoop=1;jettySize=auto;html=1;exitX=0;exitY=0.5;exitDx=0;exitDy=0;entryX=1;entryY=0.5;entryDx=0;entryDy=0;shadow=0;strokeColor=default;strokeWidth=0.3937;align=center;verticalAlign=middle;fontFamily=Helvetica;fontSize=11;fontColor=default;labelBackgroundColor=default;startFill=0;endArrow=none;flowAnimation=0;" parent="1" source="vW0XQEw-QO7GtGbMRlmA-43" target="vW0XQEw-QO7GtGbMRlmA-20" edge="1">
          <mxGeometry relative="1" as="geometry" />
        </mxCell>
        <mxCell id="vW0XQEw-QO7GtGbMRlmA-42" value="N" style="edgeLabel;html=1;align=center;verticalAlign=middle;resizable=0;points=[];strokeColor=default;strokeWidth=0.3937;spacing=0.3937;fontFamily=Helvetica;fontSize=11;fontColor=default;labelBackgroundColor=default;fillColor=default;" parent="vW0XQEw-QO7GtGbMRlmA-41" vertex="1" connectable="0">
          <mxGeometry x="0.0895" y="-1" relative="1" as="geometry">
            <mxPoint as="offset" />
          </mxGeometry>
        </mxCell>
        <mxCell id="vW0XQEw-QO7GtGbMRlmA-43" value="" style="shape=rhombus;perimeter=rhombusPerimeter;whiteSpace=wrap;html=1;align=center;strokeWidth=0.3937;fontFamily=Helvetica;fontColor=#464646;spacing=0.3937;" parent="1" vertex="1">
          <mxGeometry x="323" y="392" width="60" height="30" as="geometry" />
        </mxCell>
        <mxCell id="vW0XQEw-QO7GtGbMRlmA-44" style="edgeStyle=orthogonalEdgeStyle;shape=connector;curved=0;rounded=1;orthogonalLoop=1;jettySize=auto;html=1;shadow=0;strokeColor=default;strokeWidth=0.3937;align=center;verticalAlign=middle;fontFamily=Helvetica;fontSize=11;fontColor=default;labelBackgroundColor=default;startFill=0;endArrow=none;flowAnimation=0;" parent="1" source="vW0XQEw-QO7GtGbMRlmA-2" target="vW0XQEw-QO7GtGbMRlmA-43" edge="1">
          <mxGeometry relative="1" as="geometry" />
        </mxCell>
        <mxCell id="vW0XQEw-QO7GtGbMRlmA-45" value="1" style="edgeLabel;html=1;align=center;verticalAlign=middle;resizable=0;points=[];strokeColor=default;strokeWidth=0.3937;spacing=0.3937;fontFamily=Helvetica;fontSize=11;fontColor=default;labelBackgroundColor=default;fillColor=default;" parent="vW0XQEw-QO7GtGbMRlmA-44" vertex="1" connectable="0">
          <mxGeometry x="0.3118" y="1" relative="1" as="geometry">
            <mxPoint as="offset" />
          </mxGeometry>
        </mxCell>
        <mxCell id="vW0XQEw-QO7GtGbMRlmA-46" value="" style="group" parent="1" vertex="1" connectable="0">
          <mxGeometry x="288" y="456" width="176" height="111" as="geometry" />
        </mxCell>
        <mxCell id="vW0XQEw-QO7GtGbMRlmA-47" value="ComposiçãoAlimento" style="rounded=1;arcSize=10;whiteSpace=wrap;html=1;align=center;" parent="vW0XQEw-QO7GtGbMRlmA-46" vertex="1">
          <mxGeometry x="31" y="71" width="134" height="40" as="geometry" />
        </mxCell>
        <mxCell id="vW0XQEw-QO7GtGbMRlmA-48" style="edgeStyle=none;shape=connector;rounded=1;orthogonalLoop=1;jettySize=auto;html=1;exitX=1;exitY=1;exitDx=0;exitDy=0;entryX=0.5;entryY=0;entryDx=0;entryDy=0;shadow=0;strokeColor=default;strokeWidth=0.3937;align=center;verticalAlign=middle;fontFamily=Helvetica;fontSize=11;fontColor=default;labelBackgroundColor=default;startFill=0;endArrow=none;flowAnimation=0;" parent="vW0XQEw-QO7GtGbMRlmA-46" source="vW0XQEw-QO7GtGbMRlmA-49" target="vW0XQEw-QO7GtGbMRlmA-47" edge="1">
          <mxGeometry relative="1" as="geometry" />
        </mxCell>
        <mxCell id="vW0XQEw-QO7GtGbMRlmA-49" value="&lt;u&gt;id_alimento&lt;/u&gt;" style="ellipse;whiteSpace=wrap;html=1;align=center;" parent="vW0XQEw-QO7GtGbMRlmA-46" vertex="1">
          <mxGeometry y="21" width="78" height="24" as="geometry" />
        </mxCell>
        <mxCell id="vW0XQEw-QO7GtGbMRlmA-50" style="edgeStyle=none;shape=connector;rounded=1;orthogonalLoop=1;jettySize=auto;html=1;exitX=0;exitY=1;exitDx=0;exitDy=0;shadow=0;strokeColor=default;strokeWidth=0.3937;align=center;verticalAlign=middle;fontFamily=Helvetica;fontSize=11;fontColor=default;labelBackgroundColor=default;startFill=0;endArrow=none;flowAnimation=0;entryX=0.5;entryY=0;entryDx=0;entryDy=0;" parent="vW0XQEw-QO7GtGbMRlmA-46" source="vW0XQEw-QO7GtGbMRlmA-51" target="vW0XQEw-QO7GtGbMRlmA-47" edge="1">
          <mxGeometry relative="1" as="geometry">
            <mxPoint x="94" y="71" as="targetPoint" />
          </mxGeometry>
        </mxCell>
        <mxCell id="vW0XQEw-QO7GtGbMRlmA-51" value="valor" style="ellipse;whiteSpace=wrap;html=1;align=center;" parent="vW0XQEw-QO7GtGbMRlmA-46" vertex="1">
          <mxGeometry x="104" y="31" width="48" height="19" as="geometry" />
        </mxCell>
        <mxCell id="vW0XQEw-QO7GtGbMRlmA-52" style="edgeStyle=none;shape=connector;rounded=1;orthogonalLoop=1;jettySize=auto;html=1;exitX=0.5;exitY=1;exitDx=0;exitDy=0;entryX=0.5;entryY=0;entryDx=0;entryDy=0;shadow=0;strokeColor=default;strokeWidth=0.3937;align=center;verticalAlign=middle;fontFamily=Helvetica;fontSize=11;fontColor=default;labelBackgroundColor=default;startFill=0;endArrow=none;flowAnimation=0;" parent="vW0XQEw-QO7GtGbMRlmA-46" source="vW0XQEw-QO7GtGbMRlmA-53" target="vW0XQEw-QO7GtGbMRlmA-47" edge="1">
          <mxGeometry relative="1" as="geometry" />
        </mxCell>
        <mxCell id="vW0XQEw-QO7GtGbMRlmA-53" value="&lt;u&gt;id_nutriente&lt;/u&gt;" style="ellipse;whiteSpace=wrap;html=1;align=center;" parent="vW0XQEw-QO7GtGbMRlmA-46" vertex="1">
          <mxGeometry x="53" width="78" height="24" as="geometry" />
        </mxCell>
        <mxCell id="vW0XQEw-QO7GtGbMRlmA-226" style="rounded=1;orthogonalLoop=1;jettySize=auto;html=1;exitX=1;exitY=0.5;exitDx=0;exitDy=0;entryX=0.5;entryY=0;entryDx=0;entryDy=0;shadow=0;strokeColor=default;strokeWidth=0.3937;align=center;verticalAlign=middle;fontFamily=Helvetica;fontSize=11;fontColor=default;labelBackgroundColor=default;startFill=0;endArrow=none;flowAnimation=0;" parent="vW0XQEw-QO7GtGbMRlmA-46" source="vW0XQEw-QO7GtGbMRlmA-221" target="vW0XQEw-QO7GtGbMRlmA-47" edge="1">
          <mxGeometry relative="1" as="geometry" />
        </mxCell>
        <mxCell id="vW0XQEw-QO7GtGbMRlmA-221" value="is_&lt;span style=&quot;background-color: transparent; color: light-dark(rgb(0, 0, 0), rgb(255, 255, 255));&quot;&gt;active&lt;/span&gt;" style="ellipse;whiteSpace=wrap;html=1;align=center;" parent="vW0XQEw-QO7GtGbMRlmA-46" vertex="1">
          <mxGeometry x="10" y="46" width="58" height="19" as="geometry" />
        </mxCell>
        <mxCell id="vW0XQEw-QO7GtGbMRlmA-62" value="" style="group" parent="1" vertex="1" connectable="0">
          <mxGeometry x="541" y="680" width="259" height="200" as="geometry" />
        </mxCell>
        <mxCell id="vW0XQEw-QO7GtGbMRlmA-63" value="" style="group" parent="vW0XQEw-QO7GtGbMRlmA-62" vertex="1" connectable="0">
          <mxGeometry x="-341" y="100" width="269.5" height="140" as="geometry" />
        </mxCell>
        <mxCell id="vW0XQEw-QO7GtGbMRlmA-64" value="" style="group" parent="vW0XQEw-QO7GtGbMRlmA-63" vertex="1" connectable="0">
          <mxGeometry x="-23" y="-87.5" width="234" height="101" as="geometry" />
        </mxCell>
        <mxCell id="vW0XQEw-QO7GtGbMRlmA-65" value="&lt;u&gt;id_categoria&lt;/u&gt;" style="ellipse;whiteSpace=wrap;html=1;align=center;" parent="vW0XQEw-QO7GtGbMRlmA-64" vertex="1">
          <mxGeometry y="10" width="80" height="21" as="geometry" />
        </mxCell>
        <mxCell id="vW0XQEw-QO7GtGbMRlmA-66" value="" style="group" parent="vW0XQEw-QO7GtGbMRlmA-64" vertex="1" connectable="0">
          <mxGeometry x="46" width="188" height="101" as="geometry" />
        </mxCell>
        <mxCell id="vW0XQEw-QO7GtGbMRlmA-67" value="Categoria Animal" style="rounded=1;arcSize=10;whiteSpace=wrap;html=1;align=center;" parent="vW0XQEw-QO7GtGbMRlmA-66" vertex="1">
          <mxGeometry y="61" width="100" height="40" as="geometry" />
        </mxCell>
        <mxCell id="vW0XQEw-QO7GtGbMRlmA-68" style="edgeStyle=none;shape=connector;rounded=1;orthogonalLoop=1;jettySize=auto;html=1;exitX=0;exitY=1;exitDx=0;exitDy=0;entryX=0.5;entryY=0;entryDx=0;entryDy=0;shadow=0;strokeColor=default;strokeWidth=0.3937;align=center;verticalAlign=middle;fontFamily=Helvetica;fontSize=11;fontColor=default;labelBackgroundColor=default;startFill=0;endArrow=none;flowAnimation=0;" parent="vW0XQEw-QO7GtGbMRlmA-66" source="vW0XQEw-QO7GtGbMRlmA-69" target="vW0XQEw-QO7GtGbMRlmA-67" edge="1">
          <mxGeometry relative="1" as="geometry" />
        </mxCell>
        <mxCell id="vW0XQEw-QO7GtGbMRlmA-69" value="esforço" style="ellipse;whiteSpace=wrap;html=1;align=center;" parent="vW0XQEw-QO7GtGbMRlmA-66" vertex="1">
          <mxGeometry x="64" width="56" height="19" as="geometry" />
        </mxCell>
        <mxCell id="vW0XQEw-QO7GtGbMRlmA-70" style="edgeStyle=none;shape=connector;rounded=1;orthogonalLoop=1;jettySize=auto;html=1;exitX=0;exitY=1;exitDx=0;exitDy=0;shadow=0;strokeColor=default;strokeWidth=0.3937;align=center;verticalAlign=middle;fontFamily=Helvetica;fontSize=11;fontColor=default;labelBackgroundColor=default;startFill=0;endArrow=none;flowAnimation=0;" parent="vW0XQEw-QO7GtGbMRlmA-66" source="vW0XQEw-QO7GtGbMRlmA-71" edge="1">
          <mxGeometry relative="1" as="geometry">
            <mxPoint x="53" y="60" as="targetPoint" />
          </mxGeometry>
        </mxCell>
        <mxCell id="vW0XQEw-QO7GtGbMRlmA-71" value="peso_vivo" style="ellipse;whiteSpace=wrap;html=1;align=center;" parent="vW0XQEw-QO7GtGbMRlmA-66" vertex="1">
          <mxGeometry x="72" y="20" width="65" height="19" as="geometry" />
        </mxCell>
        <mxCell id="vW0XQEw-QO7GtGbMRlmA-72" value="gmd: Ganho Médio Diario" style="text;html=1;align=center;verticalAlign=middle;whiteSpace=wrap;rounded=0;fontFamily=Helvetica;fontSize=11;fontColor=default;labelBackgroundColor=default;" parent="vW0XQEw-QO7GtGbMRlmA-66" vertex="1">
          <mxGeometry x="120" y="-10" width="68" height="30" as="geometry" />
        </mxCell>
        <mxCell id="vW0XQEw-QO7GtGbMRlmA-73" value="fase" style="ellipse;whiteSpace=wrap;html=1;align=center;" parent="vW0XQEw-QO7GtGbMRlmA-66" vertex="1">
          <mxGeometry x="3" y="-10" width="46" height="19" as="geometry" />
        </mxCell>
        <mxCell id="vW0XQEw-QO7GtGbMRlmA-74" style="edgeStyle=none;shape=connector;rounded=1;orthogonalLoop=1;jettySize=auto;html=1;exitX=1;exitY=1;exitDx=0;exitDy=0;shadow=0;strokeColor=default;strokeWidth=0.3937;align=center;verticalAlign=middle;fontFamily=Helvetica;fontSize=11;fontColor=default;labelBackgroundColor=default;startFill=0;endArrow=none;flowAnimation=0;entryX=0.5;entryY=0;entryDx=0;entryDy=0;" parent="vW0XQEw-QO7GtGbMRlmA-66" source="vW0XQEw-QO7GtGbMRlmA-73" target="vW0XQEw-QO7GtGbMRlmA-67" edge="1">
          <mxGeometry relative="1" as="geometry">
            <mxPoint x="39" y="50" as="targetPoint" />
          </mxGeometry>
        </mxCell>
        <mxCell id="vW0XQEw-QO7GtGbMRlmA-75" style="edgeStyle=none;shape=connector;rounded=1;orthogonalLoop=1;jettySize=auto;html=1;exitX=1;exitY=1;exitDx=0;exitDy=0;entryX=0.5;entryY=0;entryDx=0;entryDy=0;shadow=0;strokeColor=default;strokeWidth=0.3937;align=center;verticalAlign=middle;fontFamily=Helvetica;fontSize=11;fontColor=default;labelBackgroundColor=default;startFill=0;endArrow=none;flowAnimation=0;" parent="vW0XQEw-QO7GtGbMRlmA-64" source="vW0XQEw-QO7GtGbMRlmA-65" target="vW0XQEw-QO7GtGbMRlmA-67" edge="1">
          <mxGeometry relative="1" as="geometry" />
        </mxCell>
        <mxCell id="vW0XQEw-QO7GtGbMRlmA-95" value="" style="shape=rhombus;perimeter=rhombusPerimeter;whiteSpace=wrap;html=1;align=center;strokeWidth=0.3937;fontFamily=Helvetica;fontColor=#464646;spacing=0.3937;" parent="vW0XQEw-QO7GtGbMRlmA-63" vertex="1">
          <mxGeometry x="177" y="30" width="60" height="30" as="geometry" />
        </mxCell>
        <mxCell id="vW0XQEw-QO7GtGbMRlmA-91" style="edgeStyle=orthogonalEdgeStyle;shape=connector;curved=0;rounded=1;orthogonalLoop=1;jettySize=auto;html=1;entryX=1;entryY=0.5;entryDx=0;entryDy=0;shadow=0;strokeColor=default;strokeWidth=0.3937;align=center;verticalAlign=middle;fontFamily=Helvetica;fontSize=11;fontColor=default;labelBackgroundColor=default;startFill=0;endArrow=none;flowAnimation=0;exitX=0;exitY=0.5;exitDx=0;exitDy=0;" parent="vW0XQEw-QO7GtGbMRlmA-63" source="vW0XQEw-QO7GtGbMRlmA-95" target="vW0XQEw-QO7GtGbMRlmA-67" edge="1">
          <mxGeometry relative="1" as="geometry">
            <mxPoint x="207" y="120" as="sourcePoint" />
          </mxGeometry>
        </mxCell>
        <mxCell id="vW0XQEw-QO7GtGbMRlmA-92" value="1" style="edgeLabel;html=1;align=center;verticalAlign=middle;resizable=0;points=[];strokeColor=default;strokeWidth=0.3937;spacing=0.3937;fontFamily=Helvetica;fontSize=11;fontColor=default;labelBackgroundColor=default;fillColor=default;" parent="vW0XQEw-QO7GtGbMRlmA-91" vertex="1" connectable="0">
          <mxGeometry x="0.0382" y="-1" relative="1" as="geometry">
            <mxPoint as="offset" />
          </mxGeometry>
        </mxCell>
        <mxCell id="vW0XQEw-QO7GtGbMRlmA-83" value="" style="group" parent="vW0XQEw-QO7GtGbMRlmA-62" vertex="1" connectable="0">
          <mxGeometry x="-122" y="-20" width="176" height="111" as="geometry" />
        </mxCell>
        <mxCell id="vW0XQEw-QO7GtGbMRlmA-84" value="ComposiçãoExigência" style="rounded=1;arcSize=10;whiteSpace=wrap;html=1;align=center;" parent="vW0XQEw-QO7GtGbMRlmA-83" vertex="1">
          <mxGeometry x="31" y="71" width="134" height="40" as="geometry" />
        </mxCell>
        <mxCell id="vW0XQEw-QO7GtGbMRlmA-85" style="edgeStyle=none;shape=connector;rounded=1;orthogonalLoop=1;jettySize=auto;html=1;exitX=1;exitY=1;exitDx=0;exitDy=0;entryX=0.5;entryY=0;entryDx=0;entryDy=0;shadow=0;strokeColor=default;strokeWidth=0.3937;align=center;verticalAlign=middle;fontFamily=Helvetica;fontSize=11;fontColor=default;labelBackgroundColor=default;startFill=0;endArrow=none;flowAnimation=0;" parent="vW0XQEw-QO7GtGbMRlmA-83" source="vW0XQEw-QO7GtGbMRlmA-86" target="vW0XQEw-QO7GtGbMRlmA-84" edge="1">
          <mxGeometry relative="1" as="geometry" />
        </mxCell>
        <mxCell id="vW0XQEw-QO7GtGbMRlmA-86" value="&lt;u&gt;id_exigência&lt;/u&gt;" style="ellipse;whiteSpace=wrap;html=1;align=center;" parent="vW0XQEw-QO7GtGbMRlmA-83" vertex="1">
          <mxGeometry x="9" width="78" height="24" as="geometry" />
        </mxCell>
        <mxCell id="vW0XQEw-QO7GtGbMRlmA-87" style="edgeStyle=none;shape=connector;rounded=1;orthogonalLoop=1;jettySize=auto;html=1;exitX=0;exitY=1;exitDx=0;exitDy=0;shadow=0;strokeColor=default;strokeWidth=0.3937;align=center;verticalAlign=middle;fontFamily=Helvetica;fontSize=11;fontColor=default;labelBackgroundColor=default;startFill=0;endArrow=none;flowAnimation=0;entryX=0.5;entryY=0;entryDx=0;entryDy=0;" parent="vW0XQEw-QO7GtGbMRlmA-83" source="vW0XQEw-QO7GtGbMRlmA-88" target="vW0XQEw-QO7GtGbMRlmA-84" edge="1">
          <mxGeometry relative="1" as="geometry">
            <mxPoint x="94" y="71" as="targetPoint" />
          </mxGeometry>
        </mxCell>
        <mxCell id="vW0XQEw-QO7GtGbMRlmA-88" value="valor" style="ellipse;whiteSpace=wrap;html=1;align=center;" parent="vW0XQEw-QO7GtGbMRlmA-83" vertex="1">
          <mxGeometry x="121" y="22" width="72" height="24" as="geometry" />
        </mxCell>
        <mxCell id="vW0XQEw-QO7GtGbMRlmA-89" style="edgeStyle=none;shape=connector;rounded=1;orthogonalLoop=1;jettySize=auto;html=1;exitX=0.5;exitY=1;exitDx=0;exitDy=0;entryX=0.5;entryY=0;entryDx=0;entryDy=0;shadow=0;strokeColor=default;strokeWidth=0.3937;align=center;verticalAlign=middle;fontFamily=Helvetica;fontSize=11;fontColor=default;labelBackgroundColor=default;startFill=0;endArrow=none;flowAnimation=0;" parent="vW0XQEw-QO7GtGbMRlmA-83" source="vW0XQEw-QO7GtGbMRlmA-90" target="vW0XQEw-QO7GtGbMRlmA-84" edge="1">
          <mxGeometry relative="1" as="geometry" />
        </mxCell>
        <mxCell id="vW0XQEw-QO7GtGbMRlmA-90" value="&lt;u&gt;id_nutriente&lt;/u&gt;" style="ellipse;whiteSpace=wrap;html=1;align=center;" parent="vW0XQEw-QO7GtGbMRlmA-83" vertex="1">
          <mxGeometry x="87" y="-3" width="78" height="24" as="geometry" />
        </mxCell>
        <mxCell id="qZO97B_RFsWjRBhxfllg-9" value="is_&lt;span style=&quot;background-color: transparent; color: light-dark(rgb(0, 0, 0), rgb(255, 255, 255));&quot;&gt;active&lt;/span&gt;" style="ellipse;whiteSpace=wrap;html=1;align=center;" vertex="1" parent="vW0XQEw-QO7GtGbMRlmA-83">
          <mxGeometry x="19" y="27" width="58" height="19" as="geometry" />
        </mxCell>
        <mxCell id="qZO97B_RFsWjRBhxfllg-10" style="edgeStyle=none;shape=connector;rounded=1;orthogonalLoop=1;jettySize=auto;html=1;exitX=1;exitY=1;exitDx=0;exitDy=0;entryX=0.5;entryY=0;entryDx=0;entryDy=0;shadow=0;strokeColor=default;strokeWidth=0.3937;align=center;verticalAlign=middle;fontFamily=Helvetica;fontSize=11;fontColor=default;labelBackgroundColor=default;startFill=0;endArrow=none;flowAnimation=0;" edge="1" parent="vW0XQEw-QO7GtGbMRlmA-83" source="qZO97B_RFsWjRBhxfllg-9" target="vW0XQEw-QO7GtGbMRlmA-84">
          <mxGeometry relative="1" as="geometry">
            <mxPoint x="86" y="30" as="sourcePoint" />
            <mxPoint x="108" y="81" as="targetPoint" />
          </mxGeometry>
        </mxCell>
        <mxCell id="vW0XQEw-QO7GtGbMRlmA-98" style="edgeStyle=orthogonalEdgeStyle;shape=connector;curved=0;rounded=1;orthogonalLoop=1;jettySize=auto;html=1;entryX=0.5;entryY=1;entryDx=0;entryDy=0;shadow=0;strokeColor=default;strokeWidth=0.3937;align=center;verticalAlign=middle;fontFamily=Helvetica;fontSize=11;fontColor=default;labelBackgroundColor=default;startFill=0;endArrow=none;flowAnimation=0;exitX=0.5;exitY=0;exitDx=0;exitDy=0;" parent="vW0XQEw-QO7GtGbMRlmA-62" source="vW0XQEw-QO7GtGbMRlmA-100" target="vW0XQEw-QO7GtGbMRlmA-84" edge="1">
          <mxGeometry relative="1" as="geometry" />
        </mxCell>
        <mxCell id="vW0XQEw-QO7GtGbMRlmA-99" value="N" style="edgeLabel;html=1;align=center;verticalAlign=middle;resizable=0;points=[];strokeColor=default;strokeWidth=0.3937;spacing=0.3937;fontFamily=Helvetica;fontSize=11;fontColor=default;labelBackgroundColor=default;fillColor=default;" parent="vW0XQEw-QO7GtGbMRlmA-98" vertex="1" connectable="0">
          <mxGeometry x="0.1362" y="-2" relative="1" as="geometry">
            <mxPoint as="offset" />
          </mxGeometry>
        </mxCell>
        <mxCell id="vW0XQEw-QO7GtGbMRlmA-54" value="" style="group" parent="vW0XQEw-QO7GtGbMRlmA-62" vertex="1" connectable="0">
          <mxGeometry x="-174" y="130" width="217" height="120" as="geometry" />
        </mxCell>
        <mxCell id="vW0XQEw-QO7GtGbMRlmA-55" value="Exigência" style="rounded=1;arcSize=10;whiteSpace=wrap;html=1;align=center;" parent="vW0XQEw-QO7GtGbMRlmA-54" vertex="1">
          <mxGeometry x="80" y="70" width="100" height="40" as="geometry" />
        </mxCell>
        <mxCell id="vW0XQEw-QO7GtGbMRlmA-100" value="" style="shape=rhombus;perimeter=rhombusPerimeter;whiteSpace=wrap;html=1;align=center;strokeWidth=0.3937;fontFamily=Helvetica;fontColor=#464646;spacing=0.3937;" parent="vW0XQEw-QO7GtGbMRlmA-54" vertex="1">
          <mxGeometry x="157" width="60" height="30" as="geometry" />
        </mxCell>
        <mxCell id="vW0XQEw-QO7GtGbMRlmA-96" style="edgeStyle=orthogonalEdgeStyle;shape=connector;curved=0;rounded=1;orthogonalLoop=1;jettySize=auto;html=1;shadow=0;strokeColor=default;strokeWidth=0.3937;align=center;verticalAlign=middle;fontFamily=Helvetica;fontSize=11;fontColor=default;labelBackgroundColor=default;startFill=0;endArrow=none;flowAnimation=0;entryX=1;entryY=0.5;entryDx=0;entryDy=0;exitX=0.5;exitY=1;exitDx=0;exitDy=0;" parent="vW0XQEw-QO7GtGbMRlmA-54" source="vW0XQEw-QO7GtGbMRlmA-100" target="vW0XQEw-QO7GtGbMRlmA-55" edge="1">
          <mxGeometry relative="1" as="geometry">
            <mxPoint x="340" y="180" as="targetPoint" />
          </mxGeometry>
        </mxCell>
        <mxCell id="vW0XQEw-QO7GtGbMRlmA-97" value="1" style="edgeLabel;html=1;align=center;verticalAlign=middle;resizable=0;points=[];strokeColor=default;strokeWidth=0.3937;spacing=0.3937;fontFamily=Helvetica;fontSize=11;fontColor=default;labelBackgroundColor=default;fillColor=default;" parent="vW0XQEw-QO7GtGbMRlmA-96" vertex="1" connectable="0">
          <mxGeometry x="-0.0663" relative="1" as="geometry">
            <mxPoint as="offset" />
          </mxGeometry>
        </mxCell>
        <mxCell id="vW0XQEw-QO7GtGbMRlmA-93" style="edgeStyle=orthogonalEdgeStyle;shape=connector;curved=0;rounded=1;orthogonalLoop=1;jettySize=auto;html=1;exitX=1;exitY=0.5;exitDx=0;exitDy=0;entryX=0;entryY=0.5;entryDx=0;entryDy=0;shadow=0;strokeColor=default;strokeWidth=0.3937;align=center;verticalAlign=middle;fontFamily=Helvetica;fontSize=11;fontColor=default;labelBackgroundColor=default;startFill=0;endArrow=none;flowAnimation=0;" parent="vW0XQEw-QO7GtGbMRlmA-62" source="vW0XQEw-QO7GtGbMRlmA-95" target="vW0XQEw-QO7GtGbMRlmA-55" edge="1">
          <mxGeometry relative="1" as="geometry" />
        </mxCell>
        <mxCell id="vW0XQEw-QO7GtGbMRlmA-94" value="1" style="edgeLabel;html=1;align=center;verticalAlign=middle;resizable=0;points=[];strokeColor=default;strokeWidth=0.3937;spacing=0.3937;fontFamily=Helvetica;fontSize=11;fontColor=default;labelBackgroundColor=default;fillColor=default;" parent="vW0XQEw-QO7GtGbMRlmA-93" vertex="1" connectable="0">
          <mxGeometry x="0.3274" relative="1" as="geometry">
            <mxPoint x="-7" as="offset" />
          </mxGeometry>
        </mxCell>
        <mxCell id="vW0XQEw-QO7GtGbMRlmA-78" style="edgeStyle=orthogonalEdgeStyle;shape=connector;curved=0;rounded=1;orthogonalLoop=1;jettySize=auto;html=1;entryX=1;entryY=0.5;entryDx=0;entryDy=0;shadow=0;strokeColor=default;strokeWidth=0.3937;align=center;verticalAlign=middle;fontFamily=Helvetica;fontSize=11;fontColor=default;labelBackgroundColor=default;startFill=0;endArrow=none;flowAnimation=0;exitX=0.5;exitY=1;exitDx=0;exitDy=0;" parent="1" source="vW0XQEw-QO7GtGbMRlmA-80" target="vW0XQEw-QO7GtGbMRlmA-84" edge="1">
          <mxGeometry relative="1" as="geometry">
            <mxPoint x="640" y="580" as="sourcePoint" />
          </mxGeometry>
        </mxCell>
        <mxCell id="vW0XQEw-QO7GtGbMRlmA-79" value="N" style="edgeLabel;html=1;align=center;verticalAlign=middle;resizable=0;points=[];strokeColor=default;strokeWidth=0.3937;spacing=0.3937;fontFamily=Helvetica;fontSize=11;fontColor=default;labelBackgroundColor=default;fillColor=default;" parent="vW0XQEw-QO7GtGbMRlmA-78" vertex="1" connectable="0">
          <mxGeometry x="-0.035" y="-2" relative="1" as="geometry">
            <mxPoint as="offset" />
          </mxGeometry>
        </mxCell>
        <mxCell id="vW0XQEw-QO7GtGbMRlmA-80" value="" style="shape=rhombus;perimeter=rhombusPerimeter;whiteSpace=wrap;html=1;align=center;strokeWidth=0.3937;fontFamily=Helvetica;fontColor=#464646;spacing=0.3937;" parent="1" vertex="1">
          <mxGeometry x="650" y="658" width="60" height="30" as="geometry" />
        </mxCell>
        <mxCell id="vW0XQEw-QO7GtGbMRlmA-81" style="edgeStyle=orthogonalEdgeStyle;shape=connector;curved=0;rounded=1;orthogonalLoop=1;jettySize=auto;html=1;exitX=1;exitY=0.5;exitDx=0;exitDy=0;shadow=0;strokeColor=default;strokeWidth=0.3937;align=center;verticalAlign=middle;fontFamily=Helvetica;fontSize=11;fontColor=default;labelBackgroundColor=default;startFill=0;endArrow=none;flowAnimation=0;entryX=0.5;entryY=0;entryDx=0;entryDy=0;" parent="1" source="vW0XQEw-QO7GtGbMRlmA-32" target="vW0XQEw-QO7GtGbMRlmA-80" edge="1">
          <mxGeometry relative="1" as="geometry" />
        </mxCell>
        <mxCell id="vW0XQEw-QO7GtGbMRlmA-82" value="1" style="edgeLabel;html=1;align=center;verticalAlign=middle;resizable=0;points=[];strokeColor=default;strokeWidth=0.3937;spacing=0.3937;fontFamily=Helvetica;fontSize=11;fontColor=default;labelBackgroundColor=default;fillColor=default;" parent="vW0XQEw-QO7GtGbMRlmA-81" vertex="1" connectable="0">
          <mxGeometry x="-0.0752" y="-1" relative="1" as="geometry">
            <mxPoint as="offset" />
          </mxGeometry>
        </mxCell>
        <mxCell id="vW0XQEw-QO7GtGbMRlmA-101" value="&lt;font style=&quot;font-size: 25px;&quot;&gt;Diagrama de Entidade Relacionamento, Sistema de Saúde Digestiva do Cavalo&lt;/font&gt;" style="text;html=1;align=center;verticalAlign=middle;whiteSpace=wrap;rounded=0;fontFamily=Helvetica;fontSize=11;fontColor=default;labelBackgroundColor=default;" parent="1" vertex="1">
          <mxGeometry x="94.5" y="80" width="630" height="30" as="geometry" />
        </mxCell>
        <mxCell id="vW0XQEw-QO7GtGbMRlmA-102" value="&lt;h1 style=&quot;margin-top: 0px;&quot;&gt;&lt;span style=&quot;background-color: light-dark(#ffffff, var(--ge-dark-color, #121212)); color: light-dark(rgb(0, 0, 0), rgb(255, 255, 255));&quot;&gt;DER&amp;nbsp;&lt;i&gt;v4 Sprint 1&lt;/i&gt;&lt;/span&gt;&lt;/h1&gt;&lt;div style=&quot;&quot;&gt;&lt;span style=&quot;font-size: 12px;&quot;&gt;Adicionei&amp;nbsp;&lt;/span&gt;&lt;/div&gt;" style="text;html=1;whiteSpace=wrap;overflow=hidden;rounded=0;fontFamily=Helvetica;fontSize=11;fontColor=default;labelBackgroundColor=default;align=left;" parent="1" vertex="1">
          <mxGeometry x="100" y="170" width="425" height="120" as="geometry" />
        </mxCell>
        <mxCell id="H5D_cFvwbqCoXHhXU7iX-320" value="&lt;u&gt;id_categoria&lt;/u&gt;" style="ellipse;whiteSpace=wrap;html=1;align=center;" parent="1" vertex="1">
          <mxGeometry x="475" y="974" width="85" height="24" as="geometry" />
        </mxCell>
        <mxCell id="H5D_cFvwbqCoXHhXU7iX-322" style="edgeStyle=none;shape=connector;rounded=1;orthogonalLoop=1;jettySize=auto;html=1;exitX=0;exitY=0;exitDx=0;exitDy=0;entryX=0.5;entryY=1;entryDx=0;entryDy=0;shadow=0;strokeColor=default;strokeWidth=0.3937;align=center;verticalAlign=middle;fontFamily=Helvetica;fontSize=11;fontColor=default;labelBackgroundColor=default;startFill=0;endArrow=none;flowAnimation=0;" parent="1" source="H5D_cFvwbqCoXHhXU7iX-320" target="vW0XQEw-QO7GtGbMRlmA-55" edge="1">
          <mxGeometry relative="1" as="geometry" />
        </mxCell>
        <mxCell id="vW0XQEw-QO7GtGbMRlmA-59" value="&lt;u&gt;id_exigência&lt;/u&gt;" style="ellipse;whiteSpace=wrap;html=1;align=center;" parent="1" vertex="1">
          <mxGeometry x="515.5" y="950" width="85" height="24" as="geometry" />
        </mxCell>
        <mxCell id="vW0XQEw-QO7GtGbMRlmA-61" value="grupo" style="ellipse;whiteSpace=wrap;html=1;align=center;" parent="1" vertex="1">
          <mxGeometry x="426" y="974" width="49" height="20" as="geometry" />
        </mxCell>
        <mxCell id="vW0XQEw-QO7GtGbMRlmA-60" style="edgeStyle=none;shape=connector;rounded=1;orthogonalLoop=1;jettySize=auto;html=1;entryX=0.5;entryY=1;entryDx=0;entryDy=0;shadow=0;strokeColor=default;strokeWidth=0.3937;align=center;verticalAlign=middle;fontFamily=Helvetica;fontSize=11;fontColor=default;labelBackgroundColor=default;startFill=0;endArrow=none;flowAnimation=0;exitX=1;exitY=0;exitDx=0;exitDy=0;" parent="1" source="vW0XQEw-QO7GtGbMRlmA-61" target="vW0XQEw-QO7GtGbMRlmA-55" edge="1">
          <mxGeometry relative="1" as="geometry" />
        </mxCell>
        <mxCell id="qZO97B_RFsWjRBhxfllg-2" style="edgeStyle=none;shape=connector;rounded=1;orthogonalLoop=1;jettySize=auto;html=1;shadow=0;strokeColor=default;strokeWidth=0.3937;align=center;verticalAlign=middle;fontFamily=Helvetica;fontSize=11;fontColor=default;labelBackgroundColor=default;startFill=0;endArrow=none;flowAnimation=0;exitX=0;exitY=0;exitDx=0;exitDy=0;entryX=0.5;entryY=1;entryDx=0;entryDy=0;" edge="1" parent="1" source="vW0XQEw-QO7GtGbMRlmA-59" target="vW0XQEw-QO7GtGbMRlmA-55">
          <mxGeometry relative="1" as="geometry">
            <mxPoint x="698" y="1117" as="sourcePoint" />
            <mxPoint x="706" y="1040" as="targetPoint" />
          </mxGeometry>
        </mxCell>
        <mxCell id="vW0XQEw-QO7GtGbMRlmA-77" value="gmd" style="ellipse;whiteSpace=wrap;html=1;align=center;" parent="1" vertex="1">
          <mxGeometry x="268" y="670" width="43" height="18" as="geometry" />
        </mxCell>
        <mxCell id="vW0XQEw-QO7GtGbMRlmA-76" style="edgeStyle=none;shape=connector;rounded=1;orthogonalLoop=1;jettySize=auto;html=1;exitX=0.264;exitY=0.964;exitDx=0;exitDy=0;entryX=0.5;entryY=0;entryDx=0;entryDy=0;shadow=0;strokeColor=default;strokeWidth=0.3937;align=center;verticalAlign=middle;fontFamily=Helvetica;fontSize=11;fontColor=default;labelBackgroundColor=default;startFill=0;endArrow=none;flowAnimation=0;exitPerimeter=0;" parent="1" source="vW0XQEw-QO7GtGbMRlmA-77" target="vW0XQEw-QO7GtGbMRlmA-67" edge="1">
          <mxGeometry relative="1" as="geometry">
            <mxPoint x="277.2484034317338" y="688.1256208876591" as="sourcePoint" />
          </mxGeometry>
        </mxCell>
        <mxCell id="qZO97B_RFsWjRBhxfllg-4" value="" style="shape=rhombus;perimeter=rhombusPerimeter;whiteSpace=wrap;html=1;align=center;strokeWidth=0.3937;fontFamily=Helvetica;fontColor=#464646;spacing=0.3937;" vertex="1" parent="1">
          <mxGeometry x="475" y="470" width="60" height="30" as="geometry" />
        </mxCell>
        <mxCell id="qZO97B_RFsWjRBhxfllg-5" style="edgeStyle=orthogonalEdgeStyle;shape=connector;curved=0;rounded=1;orthogonalLoop=1;jettySize=auto;html=1;shadow=0;strokeColor=default;strokeWidth=0.3937;align=center;verticalAlign=middle;fontFamily=Helvetica;fontSize=11;fontColor=default;labelBackgroundColor=default;startFill=0;endArrow=none;flowAnimation=0;exitX=0.5;exitY=1;exitDx=0;exitDy=0;entryX=0.5;entryY=0;entryDx=0;entryDy=0;" edge="1" parent="1" source="vW0XQEw-QO7GtGbMRlmA-2" target="qZO97B_RFsWjRBhxfllg-4">
          <mxGeometry relative="1" as="geometry">
            <mxPoint x="451" y="412" as="sourcePoint" />
            <mxPoint x="393" y="417" as="targetPoint" />
          </mxGeometry>
        </mxCell>
        <mxCell id="qZO97B_RFsWjRBhxfllg-6" value="1" style="edgeLabel;html=1;align=center;verticalAlign=middle;resizable=0;points=[];strokeColor=default;strokeWidth=0.3937;spacing=0.3937;fontFamily=Helvetica;fontSize=11;fontColor=default;labelBackgroundColor=default;fillColor=default;" vertex="1" connectable="0" parent="qZO97B_RFsWjRBhxfllg-5">
          <mxGeometry x="0.3118" y="1" relative="1" as="geometry">
            <mxPoint as="offset" />
          </mxGeometry>
        </mxCell>
        <mxCell id="qZO97B_RFsWjRBhxfllg-7" style="edgeStyle=orthogonalEdgeStyle;shape=connector;curved=0;rounded=1;orthogonalLoop=1;jettySize=auto;html=1;shadow=0;strokeColor=default;strokeWidth=0.3937;align=center;verticalAlign=middle;fontFamily=Helvetica;fontSize=11;fontColor=default;labelBackgroundColor=default;startFill=0;endArrow=none;flowAnimation=0;exitX=0;exitY=0.5;exitDx=0;exitDy=0;entryX=0.5;entryY=1;entryDx=0;entryDy=0;" edge="1" parent="1" source="vW0XQEw-QO7GtGbMRlmA-32" target="qZO97B_RFsWjRBhxfllg-4">
          <mxGeometry relative="1" as="geometry">
            <mxPoint x="501" y="432" as="sourcePoint" />
            <mxPoint x="515" y="480" as="targetPoint" />
          </mxGeometry>
        </mxCell>
        <mxCell id="qZO97B_RFsWjRBhxfllg-8" value="N" style="edgeLabel;html=1;align=center;verticalAlign=middle;resizable=0;points=[];strokeColor=default;strokeWidth=0.3937;spacing=0.3937;fontFamily=Helvetica;fontSize=11;fontColor=default;labelBackgroundColor=default;fillColor=default;" vertex="1" connectable="0" parent="qZO97B_RFsWjRBhxfllg-7">
          <mxGeometry x="0.3118" y="1" relative="1" as="geometry">
            <mxPoint as="offset" />
          </mxGeometry>
        </mxCell>
      </root>
    </mxGraphModel>
  </diagram>
</mxfile>
